<svg xmlns="http://www.w3.org/2000/svg" width="512" height="512" viewBox="0 0 447.645 447.645"><path d="M447.639 244.402c0-8.805-1.988-17.215-5.578-24.909a81.182 81.182 0 00-1.322-5.89l-38.884-96.365-.263-.867c-13.605-40.509-32.963-78.001-82.049-78.001H131.868c-50.296 0-68.069 38.421-81.972 77.776l-40.673 96.6C3.343 222.167 0 232.944 0 244.402v29.986c0 4.636.548 9.171 1.59 13.539A23.568 23.568 0 000 296.408v89.185c0 13.078 10.602 23.682 23.68 23.682h49.14c13.071 0 23.673-10.604 23.673-23.682v-44.599h257.46v44.599c0 13.078 10.604 23.682 23.683 23.682h46.326c13.083 0 23.683-10.604 23.683-23.682v-89.195a23.71 23.71 0 00-1.588-8.474 58.573 58.573 0 001.588-13.54v-29.981h-.006zM78.754 125.821c15.483-43.683 27.934-57.018 53.114-57.018h187.664c24.995 0 38.913 14.873 53.056 56.83l28.375 57.502c-9.265-3.431-19.461-5.335-30.173-5.335H76.849c-9.645 0-18.862 1.551-27.366 4.358l29.271-56.337zm24.375 159.955H51.281c-9.335 0-16.906-7.578-16.906-16.912 0-9.337 7.571-16.91 16.906-16.91h51.848c9.339 0 16.91 7.573 16.91 16.91 0 9.334-7.576 16.912-16.91 16.912zm183.155-3.387h-120.6c-5.913 0-10.704-4.794-10.704-10.704 0-5.921 4.791-10.713 10.704-10.713h120.6c5.92 0 10.71 4.792 10.71 10.713 0 5.91-4.79 10.704-10.71 10.704zm108.767 3.387h-51.846c-9.343 0-16.91-7.578-16.91-16.912 0-9.337 7.573-16.91 16.91-16.91h51.846c9.343 0 16.916 7.573 16.916 16.91 0 9.334-7.573 16.912-16.916 16.912z" fill="#f1f1f1" data-original="#000000" xmlns="http://www.w3.org/2000/svg"/></svg>