<svg xmlns="http://www.w3.org/2000/svg" width="512" height="512"><g fill="#f1f1f1"><path xmlns="http://www.w3.org/2000/svg" d="M106 512h300c24.814 0 45-20.186 45-45V150H346c-24.814 0-45-20.186-45-45V0H106C81.186 0 61 20.186 61 45v422c0 24.814 20.186 45 45 45zm60-301h180c8.291 0 15 6.709 15 15s-6.709 15-15 15H166c-8.291 0-15-6.709-15-15s6.709-15 15-15zm0 60h180c8.291 0 15 6.709 15 15s-6.709 15-15 15H166c-8.291 0-15-6.709-15-15s6.709-15 15-15zm0 60h180c8.291 0 15 6.709 15 15s-6.709 15-15 15H166c-8.291 0-15-6.709-15-15s6.709-15 15-15zm0 60h120c8.291 0 15 6.709 15 15s-6.709 15-15 15H166c-8.291 0-15-6.709-15-15s6.709-15 15-15z" data-original="#000000"/><path xmlns="http://www.w3.org/2000/svg" d="M346 120h96.211L331 8.789V105c0 8.276 6.724 15 15 15z" data-original="#000000"/></g></svg>