<svg xmlns="http://www.w3.org/2000/svg" width="512" height="512"><path d="M256 0C114.848 0 0 114.848 0 256s114.848 256 256 256 256-114.848 256-256S397.152 0 256 0zm95.68 128.32c35.296 0 64 28.704 64 64 0 8.832-7.168 16-16 16s-16-7.168-16-16c0-17.632-14.336-32-32-32s-32 14.368-32 32c0 8.832-7.168 16-16 16s-16-7.168-16-16c0-35.296 28.704-64 64-64zm-192 0c35.296 0 64 28.704 64 64 0 8.832-7.168 16-16 16s-16-7.168-16-16c0-17.632-14.368-32-32-32s-32 14.368-32 32c0 8.832-7.168 16-16 16s-16-7.168-16-16c0-35.296 28.704-64 64-64zm96 320c-85.6 0-161.536-57.44-184.672-139.648a15.859 15.859 0 012.624-13.984A15.99 15.99 0 0186.4 288.32h338.56c4.992 0 9.728 2.336 12.736 6.336s4 9.152 2.656 14.016C417.184 390.88 341.248 448.32 255.68 448.32z" fill="#f1f1f1" data-original="#000000" xmlns="http://www.w3.org/2000/svg"/></svg>